<?xml version="1.0" encoding="UTF-8"?><svg id="Layer_1" xmlns="http://www.w3.org/2000/svg" viewBox="0 0 841.89 595.28"><defs><style>.cls-1{stroke-width:0px;}</style></defs><path class="cls-1" d="m420.94,124.25c-95.61,0-173.39,77.78-173.39,173.39s77.78,173.39,173.39,173.39,173.39-77.78,173.39-173.39-77.78-173.39-173.39-173.39Zm0,330.58c-86.67,0-157.19-70.51-157.19-157.19s70.51-157.18,157.19-157.18,157.19,70.51,157.19,157.18-70.51,157.19-157.19,157.19Z"/><polygon class="cls-1" points="517.54 234.48 316.29 346.29 324.35 360.79 420.95 307.13 517.54 360.79 525.6 346.29 438.03 297.64 525.6 248.99 517.54 234.48"/><path class="cls-1" d="m347.99,297.89c17.48,0,31.7-14.22,31.7-31.7s-14.22-31.7-31.7-31.7-31.7,14.22-31.7,31.7,14.22,31.7,31.7,31.7Zm0-46.81c8.33,0,15.11,6.78,15.11,15.11s-6.78,15.11-15.11,15.11-15.11-6.78-15.11-15.11,6.78-15.11,15.11-15.11Z"/></svg>